<svg xmlns="http://www.w3.org/2000/svg" width="1024" height="1024" viewBox="50 37.5 400 400"><defs><clipPath id="above-rim"><rect width="400" height="202.5" x="50" y="37.5"/></clipPath></defs><g clip-path="url(#above-rim)"><g id="kitten-left"><polygon fill="#E5E7EB" points="125 200 120 150 150 180"/><polygon fill="#E5E7EB" points="199 200 204 150 174 180"/><rect width="84" height="100" x="120" y="170" fill="#E5E7EB" rx="42"/><circle cx="145" cy="210" r="4" fill="#1F2937"/><circle cx="179" cy="210" r="4" fill="#1F2937"/><polygon fill="#1F2937" points="158 220 166 220 162 225"/></g><g id="kitten-right"><polygon fill="#374151" points="301 200 296 150 326 180"/><polygon fill="#374151" points="375 200 380 150 350 180"/><rect width="84" height="100" x="296" y="170" fill="#374151" rx="42"/><circle cx="321" cy="210" r="4" fill="#F9FAFB"/><circle cx="355" cy="210" r="4" fill="#F9FAFB"/><polygon fill="#F9FAFB" points="334 220 342 220 338 225"/></g><g id="kitten-center"><polygon fill="#F59E0B" points="205 160 200 105 240 140"/><polygon fill="#F59E0B" points="295 160 300 105 260 140"/><rect width="110" height="150" x="195" y="130" fill="#F59E0B" rx="55"/><path fill="none" stroke="#1F2937" stroke-linecap="round" stroke-width="3" d="M 222 185 Q 230 176 238 185"/><path fill="none" stroke="#1F2937" stroke-linecap="round" stroke-width="3" d="M 262 185 Q 270 176 278 185"/><polygon fill="#1F2937" points="246 198 254 198 250 204"/></g></g><g id="whiskers-left" stroke="#C0C4CA" stroke-linecap="round" stroke-width="1.2"><line x1="120" x2="144" y1="216" y2="220"/><line x1="118" x2="143" y1="222" y2="223"/><line x1="180" x2="204" y1="220" y2="216"/><line x1="181" x2="206" y1="223" y2="222"/></g><g id="whiskers-right" stroke="#4B5563" stroke-linecap="round" stroke-width="1.2"><line x1="296" x2="320" y1="216" y2="220"/><line x1="294" x2="319" y1="222" y2="223"/><line x1="356" x2="380" y1="220" y2="216"/><line x1="357" x2="382" y1="223" y2="222"/></g><g id="whiskers-center" stroke="#C88638" stroke-linecap="round" stroke-width="1.2"><line x1="195" x2="228" y1="195" y2="200"/><line x1="193" x2="227" y1="203" y2="204"/><line x1="272" x2="305" y1="200" y2="195"/><line x1="273" x2="307" y1="204" y2="203"/></g><g id="paws"><rect width="18" height="28" x="135" y="234" fill="#FFF" rx="9"/><rect width="18" height="28" x="165" y="234" fill="#FFF" rx="9"/><rect width="20" height="30" x="225" y="230" fill="#FFF" rx="10"/><rect width="20" height="30" x="255" y="230" fill="#FFF" rx="10"/><rect width="18" height="28" x="317" y="234" fill="#4B5563" rx="9"/><rect width="18" height="28" x="347" y="234" fill="#4B5563" rx="9"/></g></svg>